{
	"animations":[{
		"samplers":[{
			"input":4,
			"interpolation":"LINEAR",
			"output":5
		}],
		"channels":[{
			"sampler":0,
			"target":{
				"node":0,
				"path":"scale"
			}
		}]
	}],
	"buffers":[{
		"uri":"data:application/octet-stream;base64,",
		"byteLength":383176
	},
	{
		"uri":"data:application/octet-stream;base64,",
		"byteLength":2896
	}],
	"asset":{
		"version":"2.0",
		"generator":"Created using the official Cinema 4D glTF Exporter 1.000x284978"
	},
	"scenes":[{
		"nodes":[0]
	}],
	"nodes":[{
		"name":"LUME",
		"translation":[20.651351928710939,
		0.0,
		0.0],
		"rotation":[0.0,
		0.0,
		0.0,
		-1.0],
		"scale":[1.0,
		0.029999999329447748,
		1.0],
		"mesh":0
	}],
	"meshes":[{
		"name":"LUME",
		"primitives":[{
			"attributes":{
				"POSITION":1,
				"NORMAL":2,
				"TEXCOORD_0":3
			},
			"indices":0,
			"material":0
		}]
	}],
	"accessors":[{
		"bufferView":0,
		"type":"SCALAR",
		"componentType":5123,
		"count":29796,
		"byteOffset":0,
		"min":[0],
		"max":[10111]
	},
	{
		"bufferView":1,
		"type":"VEC3",
		"componentType":5126,
		"count":10112,
		"byteOffset":0,
		"min":[-1219.125244140625,
		-1.0,
		-332.22125244140627],
		"max":[1180.874755859375,
		511.6737060546875,
		293.5360107421875]
	},
	{
		"bufferView":1,
		"type":"VEC3",
		"componentType":5126,
		"count":10112,
		"byteOffset":12,
		"min":[-1.0,
		-1.0,
		-1.0],
		"max":[1.0,
		1.0,
		1.0]
	},
	{
		"bufferView":1,
		"type":"VEC2",
		"componentType":5126,
		"count":10112,
		"byteOffset":24,
		"min":[0.034005776047706607,
		0.06715133786201477],
		"max":[0.9544183015823364,
		0.8790550231933594]
	},
	{
		"bufferView":2,
		"type":"SCALAR",
		"componentType":5126,
		"count":181,
		"byteOffset":0,
		"min":[0.0],
		"max":[6.0]
	},
	{
		"bufferView":2,
		"type":"VEC3",
		"componentType":5126,
		"count":181,
		"byteOffset":724,
		"min":[1.0,
		0.029999999329447748,
		1.0],
		"max":[1.0,
		1.0,
		1.0]
	}],
	"bufferViews":[{
		"buffer":0,
		"byteOffset":0,
		"byteLength":59592,
		"target":34963
	},
	{
		"buffer":0,
		"byteOffset":59592,
		"byteLength":323584,
		"target":34962,
		"byteStride":32
	},
	{
		"buffer":1,
		"byteOffset":0,
		"byteLength":2896
	}],
	"images":[{
		"uri":"data:image/jpeg;base64,"
	}],
	"samplers":[{
		"magFilter":9729,
		"minFilter":9729,
		"wrapS":10497,
		"wrapT":10497
	}],
	"textures":[{
		"sampler":0,
		"source":0
	}],
	"materials":[{
		"pbrMetallicRoughness":{
			"baseColorTexture":{
				"index":0
			},
			"baseColorFactor":[0.8,
			0.8,
			0.8,
			1.0],
			"metallicFactor":0.0,
			"roughnessFactor":0.5
		},
		"emissiveFactor":[0.0,
		0.0,
		0.0],
		"alphaMode":"OPAQUE",
		"doubleSided":false,
		"name":"Mat.2"
	}]
}